<svg width="70" height="61" viewBox="0 0 70 61" fill="none" xmlns="http://www.w3.org/2000/svg">
<path d="M69.6094 6.27344C62.4479 11.3516 57.1745 16.2344 53.7891 20.9219C50.4036 25.4792 48.7109 29.9062 48.7109 34.2031C48.7109 35.5052 49.2318 36.1562 50.2734 36.1562L54.5703 35.7656C58.6068 35.7656 61.862 36.8724 64.3359 39.0859C66.8099 41.1693 68.0469 44.0339 68.0469 47.6797C68.0469 51.3255 66.7448 54.3203 64.1406 56.6641C61.6667 59.0078 58.5417 60.1797 54.7656 60.1797C49.8177 60.1797 45.7812 58.4219 42.6562 54.9062C39.5312 51.2604 37.9688 46.3125 37.9688 40.0625C37.9688 32.7708 40.1172 25.9349 44.4141 19.5547C48.8411 13.0443 55.612 6.66406 64.7266 0.414062L69.6094 6.27344ZM32.1094 6.27344C25.8594 10.1797 20.7812 14.737 16.875 19.9453C12.9688 25.1536 11.0156 29.9062 11.0156 34.2031C11.0156 35.5052 11.5365 36.1562 12.5781 36.1562L16.6797 35.7656C20.8464 35.7656 24.1667 36.8724 26.6406 39.0859C29.1146 41.1693 30.3516 44.0339 30.3516 47.6797C30.3516 51.3255 29.0495 54.3203 26.4453 56.6641C23.9714 59.0078 20.8464 60.1797 17.0703 60.1797C12.1224 60.1797 8.08594 58.4219 4.96094 54.9062C1.96615 51.2604 0.46875 46.3125 0.46875 40.0625C0.46875 32.7708 2.61719 25.9349 6.91406 19.5547C11.2109 13.0443 17.9167 6.66406 27.0312 0.414062L32.1094 6.27344Z" fill="#CF711F"/>
</svg>
